<?xml version="1.0" encoding="utf-8"?>
<!-- Generator: Adobe Illustrator 16.0.4, SVG Export Plug-In . SVG Version: 6.00 Build 0)  -->
<!DOCTYPE svg PUBLIC "-//W3C//DTD SVG 1.1//EN" "http://www.w3.org/Graphics/SVG/1.1/DTD/svg11.dtd">
<svg version="1.1" id="Warstwa_1" xmlns="http://www.w3.org/2000/svg" xmlns:xlink="http://www.w3.org/1999/xlink" x="0px" y="0px"
	 width="44px" height="44px" viewBox="0 0 44 44" enable-background="new 0 0 44 44" xml:space="preserve">
<g>
	<circle opacity="0.2" fill="#FFFFFF" cx="22" cy="22" r="22"/>
	<g>
		<path fill="#FFFFFF" d="M17.083,15.19v-0.281h11.819v3.42h-0.26c-0.187-0.479-0.39-0.912-0.61-1.299
			c-0.22-0.387-0.477-0.717-0.77-0.99c-0.294-0.273-0.637-0.482-1.03-0.631c-0.394-0.146-0.856-0.219-1.39-0.219h-3.021v6.439h1.12
			c0.493,0,0.91-0.07,1.25-0.211c0.34-0.139,0.623-0.34,0.851-0.6c0.227-0.26,0.413-0.572,0.56-0.939s0.267-0.777,0.36-1.23h0.26
			v6.221h-0.26c-0.094-0.387-0.204-0.76-0.33-1.121c-0.127-0.359-0.297-0.676-0.511-0.95c-0.213-0.273-0.477-0.49-0.789-0.65
			c-0.313-0.16-0.704-0.24-1.171-0.24h-1.34v6.961h1.86v0.279h-6.6v-0.279h1.84V15.19H17.083z"/>
	</g>
</g>
</svg>
